# xmcd
# 
# Track frame offsets:
#     150
#     21903
#     41808
#     58448
#     79801
#     103184
#     123125
#     151588
#     175194
# 
# Disc length: 2671
# 
# Revision: 1
# Processed by: cddbd v1.5.2PL0 Copyright (c) Steve Scherf et al.
# Submitted via: fre:ac v1.0.27
# 
DISCID=700a6d09
DTITLE=Tom Waits - Heartattack And Vine [2018 Remaster]
DYEAR=1975
DGENRE=Rock/Pop
TTITLE0=Heartattack And Vine
TTITLE1=In Shades
TTITLE2=Saving All My Love For You
TTITLE3=Downtown
TTITLE4=Jersey Girl
TTITLE5='Til The Money Runs Out
TTITLE6=On The Nickel
TTITLE7=Mr. Siegal
TTITLE8=Ruby's Arms
EXTD=2018 ANTI Reissue\n\nYEAR: 1975  ID3G:   0
EXTT0=
EXTT1=
EXTT2=
EXTT3=
EXTT4=
EXTT5=
EXTT6=
EXTT7=
EXTT8=
PLAYORDER=
